<svg xmlns="http://www.w3.org/2000/svg" xmlns:xlink="http://www.w3.org/1999/xlink" xmlns:lucid="lucid" width="1220" height="1099.13"><g transform="translate(20 19.12581063553671)" lucid:page-tab-id="0_0"><path d="M0 2.87c0-1.1.9-2 2-2h1176c1.1 0 2 .9 2 2V1058c0 1.1-.9 2-2 2H2c-1.1 0-2-.9-2-2z" fill="#e5e5e5"/><path d="M835.43 222.87c0-1.1.9-2 2-2h327.24c1.1 0 2 .9 2 2V852.2c0 1.1-.9 2-2 2H837.43c-1.1 0-2-.9-2-2z" stroke="#f5b5c8" stroke-width="5" fill="#f3e5f5"/><path d="M1125.32 232.67c0-3.32 2.68-6 6-6h29.35c3.3 0 6 2.68 6 6v161.65c0 3.32-2.7 6-6 6h-29.35c-3.32 0-6-2.68-6-6z" fill="#fff" fill-opacity="0"/><use xlink:href="#a" transform="matrix(-1.8369701987210297e-16,-1,1,-1.8369701987210297e-16,1130.31617434873,395.32309962087334) translate(13.8776041666667 22.822482638888882)"/><path d="M20 22.87c0-1.1.9-2 2-2h1142.67c1.1 0 2 .9 2 2v180.67c0 1.1-.9 2-2 2H22c-1.1 0-2-.9-2-2z" stroke="#5abaa7" stroke-width="5" fill="#f1f8e9"/><path d="M835.43 28.2c0-1.1.9-2 2-2h320.32c1.1 0 2 .9 2 2v170.67c0 1.1-.9 2-2 2H837.43c-1.1 0-2-.9-2-2z" fill="#fff" fill-opacity="0"/><path d="M861.46 26.2h16m16.03 0h16m16.02 0h16.02m16 0h16.03m16.02 0h16m16.02 0h16m16.03 0h16.02m16 0h16.03m16 0h16.03m16.02 0h8l1.42.6.58 1.4v8.54m0 17.07v17.07m0 17.07V105m0 17.07v17.07m0 17.07v17.07m0 17.07v8.53l-.58 1.42-1.42.57h-8m-16.02 0h-16.02m-16 0h-16.02m-16 0h-16.03m-16.02 0h-16m-16.03 0h-16m-16.03 0h-16.02m-16 0H925.5m-16 0h-16.03m-16.03 0h-16m-16.03 0h-8l-1.42-.58-.6-1.43v-8.53m0-17.07V156.2m0-17.06v-17.07m0-17.06V87.95m0-17.07V53.8m0-17.06V28.2l.6-1.4 1.4-.6h8.02" stroke="#4284f3" stroke-width="4" fill="none"/><path d="M963.68 101.88l-24.72-42.46c-1.92-3.4-5.28-5.33-9.24-5.44h-49.2c-3.96.1-7.32 2.03-9.24 5.44l-24.72 42.35c-1.92 3.3-1.92 7.15 0 10.56L871.28 155c1.92 3.52 5.16 5.55 9.24 5.66h49.2c3.96-.1 7.32-2.14 9.24-5.66l24.72-42.35c1.92-3.52 1.92-7.36 0-10.77z" stroke="#000" stroke-opacity="0" fill="#4285f4"/><path d="M935.63 89.68L891.3 97.9l-17.2 14.27 5.63 5.6-5.1 4.62 38.62 38.23h16.5c3.95-.14 7.3-2.13 9.22-5.6l22.9-39.38z" stroke="#000" stroke-opacity="0" fill-opacity=".07"/><path d="M914.67 130.77h-18.93c-.52 0-.93-.42-.93-.93 0-.5.42-.93.94-.93h18.93c.52 0 .93.43.93.94 0 .5-.4.93-.93.93z" stroke="#000" stroke-opacity="0" fill="#fff"/><path d="M901.6 121.7h7.25v8.13h-7.25v-8.14z" stroke="#000" stroke-opacity="0" fill="#fff"/><path d="M925.4 115.66c-.5 0-.87-.17-1.25-.53l-12.7-13.08-8.6 8.9c-.6.65-1.6.7-2.3.14l-6.46-5.17-6.86 9c-.38.45-.8.68-1.37.68H874.1v5.3c0 1.27 1.06 2.28 2.3 2.28h57.65c1.24 0 2.3-1 2.3-2.28v-5.24z" stroke="#000" stroke-opacity="0" fill="#fff"/><path d="M885 112.2l7.4-9.74c.57-.75 1.62-.9 2.43-.33v.02l6.66 5.28 8.65-9.04c.37-.36.8-.55 1.24-.55.5 0 .92.2 1.24.54l13.5 13.8h10.2V91.22c0-1.25-1.05-2.28-2.3-2.28h-57.63c-1.24 0-2.3 1.03-2.3 2.28v20.98z" stroke="#000" stroke-opacity="0" fill="#fff"/><use xlink:href="#b" transform="matrix(1,0,0,1,845.1166666666786,165.6573143644633) translate(6.457248263888893 20.616319444444443)"/><path d="M206.46 105.07l-26.36-45.3c-2.05-3.63-5.64-5.68-9.86-5.8h-52.48c-4.22.12-7.8 2.17-9.86 5.8l-26.36 45.2c-2.05 3.5-2.05 7.6 0 11.25l26.36 45.52c2.05 3.75 5.5 5.92 9.86 6.03h52.48c4.22-.1 7.8-2.28 9.86-6.03l26.36-45.18c2.05-3.75 2.05-7.85 0-11.5z" stroke="#000" stroke-opacity="0" fill="#4285f4"/><path d="M159.64 89.56L134.4 97.3l-5.83 3.36 8.47 8.3-11.5.7.23 10.7-6.4 7.98 39.8 39.4h11.1c4.23-.16 7.82-2.27 9.9-6.02l19.1-32.9z" stroke="#000" stroke-opacity="0" fill-opacity=".07"/><path d="M142 99.98h4v21.5h-4V100zM124.94 109.87H128v12.86h-4V110.8c0-.52.43-.93.94-.93zM159.98 109.87h3.07c.5 0 .93.4.93.93v11.93h-4v-12.86z" stroke="#000" stroke-opacity="0" fill="#fff"/><path d="M125 107.9H163c.56 0 1 .43 1 .98v2.97H124v-2.97c0-.55.45-1 1-1zM128.97 89.1h30.05c.64 0 .96.32.96.96V100c0 .65-.32.97-.96.97h-30.05c-.64 0-.96-.32-.96-.96v-9.94c0-.64.33-.96.97-.96zM120 118.77h11.03c.65 0 .97.33.97.97v7.96c0 .64-.32.97-.97.97H120c-.66 0-1-.33-1-.97v-7.96c0-.64.34-.97 1-.97zM156.96 118.77H168c.65 0 .98.33.98.97v7.96c0 .64-.33.97-.98.97h-11.04c-.65 0-.97-.33-.97-.97v-7.96c0-.64.3-.97.96-.97zM138 118.77H150c.67 0 1 .34 1 1v7.9c0 .66-.33 1-1 1H138c-.66 0-1-.34-1-1v-7.9c0-.66.34-1 1-1z" stroke="#000" stroke-opacity="0" fill="#fff"/><use xlink:href="#c" transform="matrix(1,0,0,1,80,172.7691893644633) translate(61.530598958333336 20.61631944444444)"/><use xlink:href="#d" transform="matrix(1,0,0,1,80,172.7691893644633) translate(65.404296875 20.61631944444444)"/><path d="M20 222.87c0-1.1.9-2 2-2h668c1.1 0 2 .9 2 2v636c0 1.1-.9 2-2 2H22c-1.1 0-2-.9-2-2z" stroke="#b2d6ef" stroke-width="5" fill="#f9fbe7"/><path d="M20 226.87c0-3.3 2.7-6 6-6h14.15c3.3 0 6 2.7 6 6v214.78c0 3.3-2.7 6-6 6H26c-3.3 0-6-2.7-6-6z" stroke="#000" stroke-opacity="0" stroke-width="3" fill="#fff" fill-opacity="0"/><use xlink:href="#e" transform="matrix(-1.8369701987210297e-16,-1,1,-1.8369701987210297e-16,25,442.6458429077703) translate(56.619140625000014 20.822482638888882)"/><path d="M53.6 240.66c0-3.3 2.7-6 6-6H674c3.3 0 6 2.7 6 6v474.2c0 3.33-2.7 6-6 6H59.6c-3.3 0-6-2.67-6-6z" stroke="#4284f3" stroke-width="4" fill-opacity="0"/><path d="M208.96 110.87H324c3.3 0 6 2.7 6 6v374.9c0 3.3 2.7 6 6 6h6" stroke="#5e5e5e" stroke-width="2" fill="none"/><path d="M208.98 111.87h-1.13l.15-1.37-.1-.63h1.08z" fill="#5e5e5e"/><path d="M357.28 497.77L343 502.4v-9.27z" stroke="#5e5e5e" stroke-width="2" fill="#5e5e5e"/><path d="M760 234.04c0-3.3 2.7-6 6-6h42.67c3.3 0 6 2.7 6 6V848.2c0 3.32-2.7 6-6 6H766c-3.3 0-6-2.68-6-6z" stroke="#a3d977" stroke-width="5" fill="#fff" fill-opacity=".75"/><use xlink:href="#f" transform="matrix(-1.8369701987210297e-16,-1,1,-1.8369701987210297e-16,765,849.2075226977963) translate(259.07508680555554 29.053819444444443)"/><use xlink:href="#g" transform="matrix(-1.8369701987210297e-16,-1,1,-1.8369701987210297e-16,765,849.2075226977963) translate(319.88237847222223 29.053819444444443)"/><path d="M20 26.87c0-3.3 2.7-6 6-6h28c3.3 0 6 2.7 6 6v168c0 3.32-2.7 6-6 6H26c-3.3 0-6-2.68-6-6z" stroke="#000" stroke-opacity="0" stroke-width="3" fill="#fff" fill-opacity="0"/><use xlink:href="#h" transform="matrix(-1.8369701987210297e-16,-1,1,-1.8369701987210297e-16,25.000000000023434,195.8741893644633) translate(14.899468315972257 22.697482638888882)"/><use xlink:href="#i" transform="matrix(-1.8369701987210297e-16,-1,1,-1.8369701987210297e-16,25.000000000023434,195.8741893644633) translate(72.02978515625001 22.697482638888882)"/><path d="M230 723.87v38.5" stroke="#5e5e5e" stroke-width="2" fill="none"/><path d="M231 723.9h-2v-1.03h2z" fill="#5e5e5e"/><path d="M230 777.64l-4.64-14.27h9.28z" stroke="#5e5e5e" stroke-width="2" fill="#5e5e5e"/><path d="M182.04 323.52c-2.04-3.55-2.04-7.95 0-11.5l26.03-45.4c2.04-3.55 5.8-5.75 9.88-5.75h52.1c4.08 0 7.83 2.2 9.88 5.75l26.03 45.4c2.04 3.55 2.04 7.95 0 11.5l-26.03 45.4c-2.04 3.55-5.8 5.74-9.88 5.74h-52.1c-4.08 0-7.84-2.2-9.88-5.74zm0 0" fill="#0e62c2"/><use xlink:href="#j" transform="matrix(1,0,0,1,179.99999999999997,379.6641893644633) translate(21.67626953125 16.69921875)"/><use xlink:href="#k" transform="matrix(1,0,0,1,179.99999999999997,379.6641893644633) translate(62.82666015625 16.69921875)"/><path d="M182.04 486.62c-2.04-3.55-2.04-7.94 0-11.5l26.03-45.4c2.04-3.54 5.8-5.74 9.88-5.74h52.1c4.08 0 7.83 2.2 9.88 5.75l26.03 45.4c2.04 3.55 2.04 7.94 0 11.5l-26.03 45.4c-2.04 3.54-5.8 5.74-9.88 5.74h-52.1c-4.08 0-7.84-2.2-9.88-5.75zm0 0" fill="#0e62c2"/><use xlink:href="#l" transform="matrix(1,0,0,1,179.99999999999997,542.7691893644634) translate(14.72314453125 16.69921875)"/><use xlink:href="#k" transform="matrix(1,0,0,1,179.99999999999997,542.7691893644634) translate(61.77978515625 16.69921875)"/><path d="M182.04 634.18c-2.04-3.55-2.04-7.94 0-11.5l26.03-45.4c2.04-3.54 5.8-5.74 9.88-5.74h52.1c4.08 0 7.83 2.2 9.88 5.75l26.03 45.4c2.04 3.54 2.04 7.93 0 11.48l-26.03 45.4c-2.04 3.55-5.8 5.75-9.88 5.75h-52.1c-4.08 0-7.84-2.2-9.88-5.75zm0 0" fill="#0e62c2"/><use xlink:href="#m" transform="matrix(1,0,0,1,179.99999999999997,690.3308560311299) translate(24.21826171875 16.69921875)"/><use xlink:href="#k" transform="matrix(1,0,0,1,179.99999999999997,690.3308560311299) translate(67.28466796875 16.69921875)"/><path d="M362.04 323.52c-2.04-3.55-2.04-7.95 0-11.5l26.03-45.4c2.04-3.55 5.8-5.75 9.88-5.75h52.1c4.08 0 7.83 2.2 9.88 5.75l26.03 45.4c2.04 3.55 2.04 7.95 0 11.5l-26.03 45.4c-2.04 3.55-5.8 5.74-9.88 5.74h-52.1c-4.08 0-7.84-2.2-9.88-5.74zm0 0" fill="#0e62c2"/><use xlink:href="#n" transform="matrix(1,0,0,1,360,379.6641893644633) translate(27.3017578125 16.69921875)"/><use xlink:href="#k" transform="matrix(1,0,0,1,360,379.6641893644633) translate(70.201171875 16.69921875)"/><path d="M542.04 486.62c-2.04-3.55-2.04-7.94 0-11.5l26.03-45.4c2.04-3.54 5.8-5.74 9.88-5.74h52.1c4.08 0 7.83 2.2 9.88 5.75l26.03 45.4c2.04 3.55 2.04 7.94 0 11.5l-26.03 45.4c-2.04 3.54-5.8 5.74-9.88 5.74h-52.1c-4.08 0-7.84-2.2-9.88-5.75zm0 0" fill="#0e62c2"/><use xlink:href="#o" transform="matrix(1,0,0,1,540,542.7691893644634) translate(2.0556640625 16.69921875)"/><use xlink:href="#p" transform="matrix(1,0,0,1,540,542.7691893644634) translate(41.8701171875 16.69921875)"/><use xlink:href="#q" transform="matrix(1,0,0,1,540,542.7691893644634) translate(63.447265625 16.69921875)"/><path d="M362.04 503.52c-2.04-3.55-2.04-7.95 0-11.5l26.03-45.4c2.04-3.55 5.8-5.75 9.88-5.75h52.1c4.08 0 7.83 2.2 9.88 5.75l26.03 45.4c2.04 3.55 2.04 7.95 0 11.5l-26.03 45.4c-2.04 3.55-5.8 5.74-9.88 5.74h-52.1c-4.08 0-7.84-2.2-9.88-5.74zm0 0" fill="#0e62c2"/><use xlink:href="#r" transform="matrix(1,0,0,1,360,559.6641893644633) translate(14.1259765625 16.69921875)"/><use xlink:href="#k" transform="matrix(1,0,0,1,360,559.6641893644633) translate(66.376953125 16.69921875)"/><path d="M542.04 323.52c-2.04-3.55-2.04-7.95 0-11.5l26.03-45.4c2.04-3.55 5.8-5.75 9.88-5.75h52.1c4.08 0 7.83 2.2 9.88 5.75l26.03 45.4c2.04 3.55 2.04 7.95 0 11.5l-26.03 45.4c-2.04 3.55-5.8 5.74-9.88 5.74h-52.1c-4.08 0-7.84-2.2-9.88-5.74zm0 0" fill="#0e62c2"/><use xlink:href="#s" transform="matrix(1,0,0,1,540,379.6641893644633) translate(23.62060546875 16.69921875)"/><use xlink:href="#k" transform="matrix(1,0,0,1,540,379.6641893644633) translate(67.88232421875 16.69921875)"/><path d="M208.96 110.87h25.47c3.3 0 6 2.7 6 6v125.5" stroke="#5e5e5e" stroke-width="2" fill="none"/><path d="M208.98 111.87h-1.13l.15-1.37-.1-.63h1.08z" fill="#5e5e5e"/><path d="M240.43 257.64l-4.64-14.27h9.26z" stroke="#5e5e5e" stroke-width="2" fill="#5e5e5e"/><path d="M208.96 110.87h207.4c3.33 0 6 2.7 6 6v125.5" stroke="#5e5e5e" stroke-width="2" fill="none"/><path d="M208.98 111.87h-1.13l.15-1.37-.1-.63h1.08z" fill="#5e5e5e"/><path d="M422.37 257.64l-4.63-14.27H427z" stroke="#5e5e5e" stroke-width="2" fill="#5e5e5e"/><path d="M142.37 168.77v306.1c0 3.32 2.7 6 6 6H162" stroke="#5e5e5e" stroke-width="2" fill="none"/><path d="M143.37 168.8h-2v-1.03h2z" fill="#5e5e5e"/><path d="M177.28 480.87L163 485.5v-9.26z" stroke="#5e5e5e" stroke-width="2" fill="#5e5e5e"/><path d="M142.37 168.77v453.67c0 3.3 2.7 6 6 6H162" stroke="#5e5e5e" stroke-width="2" fill="none"/><path d="M143.37 168.8h-2v-1.03h2z" fill="#5e5e5e"/><path d="M177.28 628.44L163 633.07v-9.27z" stroke="#5e5e5e" stroke-width="2" fill="#5e5e5e"/><path d="M208.96 110.87H504c3.3 0 6 2.7 6 6v358c0 3.32 2.7 6 6 6h6" stroke="#5e5e5e" stroke-width="2" fill="none"/><path d="M208.98 111.87h-1.13l.15-1.37-.1-.63h1.08z" fill="#5e5e5e"/><path d="M537.28 480.87L523 485.5v-9.26z" stroke="#5e5e5e" stroke-width="2" fill="#5e5e5e"/><path d="M208.96 110.87h389.36c3.3 0 6 2.7 6 6v125.5" stroke="#5e5e5e" stroke-width="2" fill="none"/><path d="M208.98 111.87h-1.13l.15-1.37-.1-.63h1.08z" fill="#5e5e5e"/><path d="M604.32 257.64l-4.64-14.27h9.27z" stroke="#5e5e5e" stroke-width="2" fill="#5e5e5e"/><path d="M994.25 608.86l-26.37-45.3c-2.05-3.63-5.63-5.68-9.86-5.8h-52.48c-4.22.12-7.8 2.17-9.85 5.8l-26.38 45.2c-2.05 3.5-2.05 7.6 0 11.25l26.37 45.53c2.04 3.75 5.5 5.92 9.84 6.03h52.48c4.23-.1 7.8-2.28 9.86-6.03l26.37-45.18c2.05-3.75 2.05-7.85 0-11.5z" stroke="#000" stroke-opacity="0" fill="#4285f4"/><path d="M961.76 588.96l-17.6 7.87h-16.4l-10.95-10.87-6.8 10.87h-.2l-8 3.94 7.64 7.6-1.65 31 32.5 32.16h17.77c4.24-.17 7.83-2.3 9.86-6l25.97-44.74z" stroke="#000" stroke-opacity="0" fill-opacity=".07"/><path d="M924.78 588.93h36.97v10.88h-36.97v-10.87zM909.8 614.65h15.98v2.97h-16v-2.97z" stroke="#000" stroke-opacity="0" fill="#fff"/><path d="M924.78 610.7h36.97v10.87h-36.97V610.7zM909.8 636.4h15.98v2.98h-16v-2.97z" stroke="#000" stroke-opacity="0" fill="#fff"/><path d="M907.8 600.8h3v38.58h-3V600.8z" stroke="#000" stroke-opacity="0" fill="#fff"/><path d="M901.8 585.96h15v14.84h-15v-14.84zM924.78 632.46h36.97v10.88h-36.97v-10.88z" stroke="#000" stroke-opacity="0" fill="#fff"/><use xlink:href="#t" transform="matrix(1,0,0,1,867.7833333333454,676.5591893644634) translate(32.125 16.493055555555554)"/><path d="M1134.25 608.86l-26.37-45.3c-2.05-3.63-5.63-5.68-9.86-5.8h-52.48c-4.22.12-7.8 2.17-9.85 5.8l-26.38 45.2c-2.05 3.5-2.05 7.6 0 11.25l26.37 45.53c2.04 3.75 5.5 5.92 9.84 6.03h52.48c4.23-.1 7.8-2.28 9.86-6.03l26.37-45.18c2.05-3.75 2.05-7.85 0-11.5z" stroke="#000" stroke-opacity="0" fill="#4285f4"/><path d="M1107.88 665.56l18.75-32.2-24.86-24.67-10.86 6.13-30.1-29.86-19 11.86 18.66 18.52-18.66 5.2 22.4 22.16-3.4 1.65 27.48 27.18h9.76c4.24-.17 7.8-2.34 9.84-5.97z" stroke="#000" stroke-opacity="0" fill-opacity=".07"/><path d="M1041.8 608.7h59.95v11.88h-59.95V608.7zM1060.8 632.46h40.95v11.87h-40.96v-11.87zM1041.8 584.97h19v11.87h-19v-11.87z" stroke="#000" stroke-opacity="0" fill="#fff"/><use xlink:href="#u" transform="matrix(1,0,0,1,1007.7833333333454,676.5591893644634) translate(34.651041666666664 16.493055555555554)"/><path d="M850.57 290.7c-2.04-3.56-2.04-7.96 0-11.5l26.03-45.4c2.04-3.56 5.8-5.76 9.9-5.76h52.08c4.08 0 7.83 2.2 9.88 5.75l26.04 45.4c2.03 3.54 2.03 7.94 0 11.5l-26.04 45.4c-2.03 3.54-5.8 5.73-9.88 5.73h-52.1c-4.08 0-7.84-2.2-9.88-5.74zm0 0" fill="#0e62c2"/><use xlink:href="#v" transform="matrix(1,0,0,1,848.5333333333333,346.83473423625816) translate(24.185546875 16.69921875)"/><path d="M850.57 462.96c-2.04-3.55-2.04-7.94 0-11.5l26.03-45.4c2.04-3.54 5.8-5.74 9.9-5.74h52.08c4.08 0 7.83 2.2 9.88 5.75l26.04 45.4c2.03 3.55 2.03 7.94 0 11.5l-26.04 45.4c-2.03 3.55-5.8 5.74-9.88 5.74h-52.1c-4.08 0-7.84-2.18-9.88-5.73zm0 0" fill="#0e62c2"/><use xlink:href="#w" transform="matrix(1,0,0,1,848.5333333333333,519.1130996208735) translate(37.23291015625 16.69921875)"/><path d="M994.25 759.53l-26.37-45.3c-2.05-3.63-5.63-5.68-9.86-5.8h-52.48c-4.22.12-7.8 2.17-9.85 5.8l-26.38 45.18c-2.05 3.66-2.05 7.75 0 11.4l26.37 45.4c2.04 3.75 5.5 5.9 9.84 6.03h52.48c4.36-.12 7.8-2.28 9.86-6.04L994.25 771c2.05-3.75 2.05-7.85 0-11.5z" stroke="#000" stroke-opacity="0" fill="#4285f4"/><path d="M989.55 779l-31.83-31.45h-1.92l-6.03-5.97-43.97 10.9 5.03 4.9-5.03 5 5.03 4.93-5.03 4.93 6.03 5.97-6.03 3.95 40.45 40.08h11.8c4.28-.17 7.8-2.34 9.9-5.97z" stroke="#000" stroke-opacity="0" fill-opacity=".07"/><path d="M905.8 747.52h9v4.95h-9v-4.95zM905.8 757.42h9v4.94h-9v-4.94zM905.8 767.3h9v4.96h-9v-4.95zM905.8 777.2h9v4.95h-9v-4.95zM948.77 747.52h9v4.95h-9v-4.95zM948.77 757.42h9v4.94h-9v-4.94zM948.77 767.3h9v4.96h-9v-4.95zM948.77 777.2h9v4.95h-9v-4.95z" stroke="#000" stroke-opacity="0" fill="#fff"/><path d="M913.8 741.58v46.5h35.97v-46.5zm15 39.58V767.3h-8.03l14-18.8v13.87h8.02z" stroke="#000" stroke-opacity="0" fill="#fff"/><use xlink:href="#x" transform="matrix(1,0,0,1,867.7833333333454,827.22585603113) translate(39.121527777777786 16.49305555555555)"/><path d="M845.12 549.1c0-1.1.9-2 2-2H1158c1.1 0 2 .9 2 2v296c0 1.1-.9 2-2 2H847.12c-1.1 0-2-.9-2-2z" fill="#fff" fill-opacity="0"/><path d="M870.43 547.1h15.55m15.54 0h15.55m15.54 0h15.55m15.55 0h15.54m15.55 0h15.53m15.54 0h15.55m15.54 0h15.55m15.55 0h15.55m15.54 0h15.54m15.55 0h7.77l1.4.6.6 1.4v8.22m0 16.45v16.44m0 16.46v16.44m0 16.45V656m0 16.44v16.44m0 16.44v16.45m0 16.44v16.46m0 16.44v16.45m0 16.44v16.44m0 16.44v8.22l-.6 1.42-1.4.58h-7.77m-15.55 0h-15.54m-15.54 0h-15.55m-15.54 0h-15.54m-15.54 0h-15.55m-15.54 0H994.8m-15.56 0H963.7m-15.55 0H932.6m-15.53 0h-15.55m-15.54 0h-15.55m-15.54 0h-7.78l-1.42-.58-.58-1.42v-8.22m0-16.44V804m0-16.45V771.1m0-16.44V738.2m0-16.43v-16.45m0-16.44v-16.44m0-16.45v-16.45m0-16.45v-16.44m0-16.45v-16.43m0-16.45v-8.22l.58-1.4 1.42-.6h7.77" stroke="#4284f3" stroke-width="4" fill="none"/><path d="M695.5 757.83h51.97c.02 0 .03 0 .03-.03 0-.02 0-.03.03-.03h104.25" stroke="#5e5e5e" stroke-width="2" fill="none"/><path d="M695.53 758.83h-1.03v-2h1.03z" fill="#5e5e5e"/><path d="M867.04 757.77l-14.26 4.63v-9.27z" stroke="#5e5e5e" stroke-width="2" fill="#5e5e5e"/><g filter="url(#y)"><path d="M60 782.87c0-1.1.9-2 2-2h336c1.1 0 2 .9 2 2v56c0 1.1-.9 2-2 2H62c-1.1 0-2-.9-2-2z" fill="#fff"/><path d="M82.5 809.63H85v2.5h-2.5zM86.88 810.88c0-.7.56-1.25 1.25-1.25.7 0 1.25.56 1.25 1.25 0 .7-.56 1.25-1.25 1.25-.7 0-1.25-.56-1.25-1.25z" fill="#757575"/><path d="M90 790.87c-5.52 0-10.24 1.96-14.14 5.86-3.9 3.9-5.86 8.62-5.86 14.14 0 5.53 1.95 10.24 5.86 14.15 3.9 3.9 8.62 5.85 14.14 5.85 5.52 0 10.24-1.95 14.14-5.85 3.9-3.9 5.86-8.62 5.86-14.15 0-5.52-1.95-10.24-5.86-14.14-3.9-3.9-8.62-5.86-14.14-5.86zm11.25 22.5c0 .7-.25 1.28-.73 1.77-.5.5-1.08.73-1.77.73h-17.5c-.7 0-1.28-.24-1.77-.73-.48-.5-.73-1.07-.73-1.77v-5c0-.7.25-1.28.73-1.76.5-.48 1.08-.73 1.77-.73h17.5c.7 0 1.28.25 1.77.74.48.5.73 1.08.73 1.77z" fill="#757575"/><path d="M91.25 810.88c0-.7.56-1.25 1.25-1.25.7 0 1.25.56 1.25 1.25 0 .7-.56 1.25-1.25 1.25-.7 0-1.25-.56-1.25-1.25z" fill="#757575"/><use xlink:href="#z" transform="matrix(1,0,0,1,119.99999999999997,800.8741893644633) translate(0 20.822482638888886)"/><use xlink:href="#A" transform="matrix(1,0,0,1,119.99999999999997,800.8741893644633) translate(158.51388888888889 20.822482638888886)"/></g><path d="M20.1 882.87c0-1.1.9-2 2-2h696c1.1 0 2 .9 2 2V1038c0 1.1-.9 2-2 2h-696c-1.1 0-2-.9-2-2z" fill="#fff8e1"/><use xlink:href="#B" transform="matrix(1,0,0,1,36.10174091856845,896.8741893644633) translate(445.68164062500006 14.520399305555557)"/><use xlink:href="#C" transform="matrix(1,0,0,1,36.10174091856845,896.8741893644633) translate(533.7717013888889 14.520399305555557)"/><use xlink:href="#D" transform="matrix(1,0,0,1,36.10174091856845,896.8741893644633) translate(585.5977647569445 14.520399305555557)"/><g filter="url(#E)"><path d="M47.26 942.87c0-1.1.9-2 2-2H358c1.1 0 2 .9 2 2v56c0 1.1-.9 2-2 2H49.26c-1.1 0-2-.9-2-2z" fill="#fff"/><path d="M77.26 960.87h-7.5v20h15v-12.5h-7.5z" fill="#757575"/><path d="M79.76 963.9c0 1.1.9 1.97 1.98 1.97 1.1 0 1.36-.62.58-1.4l-1.16-1.16c-.77-.76-1.4-.5-1.4.6z" fill="#757575"/><path d="M77.26 950.87c-5.52 0-10.24 1.96-14.14 5.86-3.9 3.9-5.86 8.62-5.86 14.14 0 5.53 1.95 10.24 5.86 14.15 3.9 3.9 8.62 5.85 14.14 5.85 5.52 0 10.24-1.95 14.14-5.85 3.9-3.9 5.86-8.62 5.86-14.15 0-5.52-1.95-10.24-5.86-14.14-3.9-3.9-8.62-5.86-14.14-5.86zm10 30c0 .7-.24 1.28-.73 1.77-.5.5-1.08.73-1.77.73h-15c-.7 0-1.28-.24-1.77-.73-.5-.5-.74-1.07-.74-1.77v-20c0-.7.24-1.28.73-1.76.48-.48 1.07-.73 1.76-.73h8c1.1 0 2.63.64 3.4 1.42l4.7 4.66c.77.78.9.67.3-.25z" fill="#757575"/><use xlink:href="#z" transform="matrix(1,0,0,1,107.26041051449727,960.8741893644633) translate(0 20.822482638888886)"/><use xlink:href="#F" transform="matrix(1,0,0,1,107.26041051449727,960.8741893644633) translate(158.51388888888889 20.822482638888886)"/></g><g filter="url(#G)"><path d="M400 942.87c0-1.1.9-2 2-2h302.15c1.1 0 2 .9 2 2v56c0 1.1-.9 2-2 2H402c-1.1 0-2-.9-2-2z" fill="#fff"/><path d="M430 960.87h-7.5v20h15v-12.5H430z" fill="#757575"/><path d="M432.5 963.9c0 1.1.9 1.97 1.98 1.97 1.1 0 1.36-.62.58-1.4l-1.16-1.16c-.77-.76-1.4-.5-1.4.6z" fill="#757575"/><path d="M430 950.87c-5.52 0-10.24 1.96-14.14 5.86-3.9 3.9-5.86 8.62-5.86 14.14 0 5.53 1.95 10.24 5.86 14.15 3.9 3.9 8.62 5.85 14.14 5.85 5.52 0 10.24-1.95 14.14-5.85 3.9-3.9 5.86-8.62 5.86-14.15 0-5.52-1.95-10.24-5.86-14.14-3.9-3.9-8.62-5.86-14.14-5.86zm10 30c0 .7-.24 1.28-.73 1.77-.5.5-1.08.73-1.77.73h-15c-.7 0-1.28-.24-1.77-.73-.5-.5-.73-1.07-.73-1.77v-20c0-.7.24-1.28.73-1.76.5-.48 1.08-.73 1.77-.73h8c1.1 0 2.63.64 3.4 1.42l4.7 4.66c.77.78.9.67.3-.25z" fill="#757575"/><use xlink:href="#H" transform="matrix(1,0,0,1,460,960.8741893644633) translate(0 20.822482638888886)"/><use xlink:href="#I" transform="matrix(1,0,0,1,460,960.8741893644633) translate(113.42773437499999 20.822482638888886)"/><use xlink:href="#J" transform="matrix(1,0,0,1,460,960.8741893644633) translate(163.31401909722217 20.822482638888886)"/></g><path d="M455.35 723.87v198.5" stroke="#5e5e5e" stroke-width="2" fill="none"/><path d="M456.35 723.9h-2v-1.03h2z" fill="#5e5e5e"/><path d="M455.35 937.64l-4.63-14.27H460z" stroke="#5e5e5e" stroke-width="2" fill="#5e5e5e"/><path d="M227.6 841.87v80.5" stroke="#5e5e5e" stroke-width="2" fill="none"/><path d="M228.6 841.9h-2v-1.03h2z" fill="#5e5e5e"/><path d="M227.6 937.64l-4.63-14.27h9.27z" stroke="#5e5e5e" stroke-width="2" fill="#5e5e5e"/><path d="M713 303.72h7c3.3 0 6 2.7 6 6v16.16c0 3.32 2.7 6 6 6h7" stroke="#5e5e5e" stroke-width="2" fill="none"/><path d="M697.74 303.72l14.26-4.64v9.28zM754.26 331.88L740 336.52v-9.27z" stroke="#5e5e5e" stroke-width="2" fill="#5e5e5e"/><path d="M977.02 457.22H1054c3.3 0 6-2.7 6-6V290.94c0-3.3-2.7-6-6-6h-59.48" stroke="#5e5e5e" stroke-width="2" fill="none"/><path d="M977.05 458.22h-1.16l.12-.97-.13-1.03h1.15z" fill="#5e5e5e"/><path d="M979.26 284.94l14.26-4.64v9.28z" stroke="#5e5e5e" stroke-width="2" fill="#5e5e5e"/><path d="M695.5 423.98h70.27c3.32 0 6-2.7 6-6V290.94c0-3.3 2.7-6 6-6h52.77" stroke="#5e5e5e" stroke-width="2" fill="none"/><path d="M695.53 424.98h-1.03v-2h1.03z" fill="#5e5e5e"/><path d="M845.8 284.94l-14.26 4.64v-9.28z" stroke="#5e5e5e" stroke-width="2" fill="#5e5e5e"/><path d="M695.5 460h135.4" stroke="#5e5e5e" stroke-width="2" fill="none"/><path d="M695.53 461h-1.03v-2h1.03z" fill="#5e5e5e"/><path d="M846.17 460l-14.27 4.64v-9.28z" stroke="#5e5e5e" stroke-width="2" fill="#5e5e5e"/><path d="M916 399.32V386c0-3.3-2.7-6-6-6h-74.33" stroke="#5e5e5e" stroke-width="2" fill="none"/><path d="M917 400.32h-2v-1.02h2z" fill="#5e5e5e"/><path d="M820.4 380l14.27-4.64v9.28z" stroke="#5e5e5e" stroke-width="2" fill="#5e5e5e"/><defs><path d="M333 0H40l252-1456h293" id="K"/><path d="M449-1083l-24 128c87-101 192-150 315-147 216 5 318 177 279 414L905 0H623l116-691c16-108-24-174-126-176-74-1-140 32-199 103L279 0H-3l188-1082" id="L"/><path d="M79 0l151-870H74l37-212 156-1c13-165 53-294 155-379 113-94 269-119 446-76l-25 225c-137-40-264 20-278 143l-15 88h209l-37 212H514L363 0H79" id="M"/><path d="M744-811c-150-29-255 1-334 103L285 0H3l188-1082 265-1-26 132c92-129 188-180 350-139" id="N"/><path d="M629 0c-9-27-12-60-11-98C485 50 246 61 106-72c-63-60-91-135-87-224 13-257 242-368 528-366l132 2c17-63 32-161-19-202-49-39-144-32-192 6-30 24-50 56-59 99l-283 1c7-217 237-346 477-346 228 0 412 152 375 381l-83 518c-7 62-8 138 12 184l-1 19H629zM412-199c81 2 152-33 213-106l35-187c-183-10-329 22-354 175-12 72 38 117 106 118" id="O"/><path d="M441-187c96 2 175-42 189-118 11-53-26-94-111-116l-91-23c-215-59-318-164-314-314 5-210 225-344 450-344 228 0 410 131 411 350l-280-1c1-93-45-140-138-141-86-1-156 50-174 122-16 64 71 103 161 122 160 35 255 75 324 181 63 97 40 247-30 331C759-44 600 20 431 20 206 20 8-127 9-346l266 2c3 103 58 156 166 157" id="P"/><path d="M575-1348l-47 266h180l-37 212H491l-92 542c-6 72 5 105 76 107 11 1 39-1 86-5L541-5C413 37 239 23 172-69c-42-59-72-134-56-230l93-571H56l37-212h153l46-266h283" id="Q"/><path d="M673-112C593-22 494 21 375 20 162 19 39-156 77-382l117-700h282L357-379c-13 97 22 165 110 165 87 0 160-31 217-101l135-767h284L915 0H652" id="R"/><path d="M477-212c109 0 179-69 198-161l265-1C918-130 729 21 470 21 181 21 20-219 51-535c31-314 228-571 551-567 241 3 402 177 396 424H735c0-112-48-187-152-191-135-5-214 95-245 295-27 170-18 362 139 362" id="S"/><path d="M340-447c-8 135 73 231 201 233 103 2 193-37 270-119l129 160C868-58 700 25 517 20 208 12 29-210 63-541c22-216 137-405 290-493 81-47 170-68 268-68 279 0 436 237 398 532l-16 123H340zm366-389c-67-51-176-40-238 16-39 35-76 93-108 177h388c21-73 4-158-42-193" id="T"/><g id="a"><use transform="matrix(0.010959201388888885,0,0,0.010959201388888885,0,0)" xlink:href="#K"/><use transform="matrix(0.010959201388888885,0,0,0.010959201388888885,6.454969618055553,0)" xlink:href="#L"/><use transform="matrix(0.010959201388888885,0,0,0.010959201388888885,18.76215277777777,0)" xlink:href="#M"/><use transform="matrix(0.010959201388888885,0,0,0.010959201388888885,26.674696180555546,0)" xlink:href="#N"/><use transform="matrix(0.010959201388888885,0,0,0.010959201388888885,34.40093315972221,0)" xlink:href="#O"/><use transform="matrix(0.010959201388888885,0,0,0.010959201388888885,46.18207465277776,0)" xlink:href="#P"/><use transform="matrix(0.010959201388888885,0,0,0.010959201388888885,57.4810112847222,0)" xlink:href="#Q"/><use transform="matrix(0.010959201388888885,0,0,0.010959201388888885,64.94422743055553,0)" xlink:href="#N"/><use transform="matrix(0.010959201388888885,0,0,0.010959201388888885,72.99924045138886,0)" xlink:href="#R"/><use transform="matrix(0.010959201388888885,0,0,0.010959201388888885,85.29546440972219,0)" xlink:href="#S"/><use transform="matrix(0.010959201388888885,0,0,0.010959201388888885,96.75878906249996,0)" xlink:href="#Q"/><use transform="matrix(0.010959201388888885,0,0,0.010959201388888885,104.22200520833329,0)" xlink:href="#R"/><use transform="matrix(0.010959201388888885,0,0,0.010959201388888885,116.51822916666661,0)" xlink:href="#N"/><use transform="matrix(0.010959201388888885,0,0,0.010959201388888885,124.36501736111106,0)" xlink:href="#T"/></g><path fill="#333" d="M417-1456L893-268l476-1188h249V0h-192c-4-403 4-794 18-1179L966 0H819L342-1176c15 384 23 773 19 1176H169v-1456h248" id="U"/><path fill="#333" d="M584 20C278 26 81-227 91-551c10-320 175-545 491-551 308-5 503 247 494 573-9 322-175 543-492 549zm-2-970c-208 0-305 185-305 421 0 216 106 398 307 398 211 0 307-186 307-420 0-214-109-399-309-399" id="V"/><path fill="#333" d="M589-945c-131 0-219 81-264 174V0H140v-1082h175l6 136c83-104 191-156 324-156 229 0 346 129 346 387V0H806v-716c-2-153-65-229-217-229" id="W"/><path fill="#333" d="M341 0H156v-1082h185V0zm-91-1264c-68 0-108-42-109-105 0-62 41-107 109-107s110 44 110 107-42 105-110 105" id="X"/><path fill="#333" d="M456 20C285 20 205-92 206-268v-671H9v-143h197v-262h185v262h202v143H391v671c-9 125 92 149 207 118V0c-49 13-96 20-142 20" id="Y"/><path fill="#333" d="M663-916c-163-27-288 18-338 148V0H140v-1082h180l3 125c61-97 147-145 258-145 36 0 63 5 82 14v172" id="Z"/><path fill="#333" d="M521 20C240 20 96-239 96-550c0-303 147-552 427-552 132 0 235 47 309 140l9-120h169V-26c4 277-183 454-459 452-165-1-334-81-400-187l96-111c79 98 176 147 291 147 180 1 288-109 286-290v-93C750-23 649 20 521 20zm48-965c-209 0-287 178-287 416 0 217 86 392 285 392 117 0 202-53 257-159v-494c-57-103-142-155-255-155" id="aa"/><g id="b"><use transform="matrix(0.010850694444444444,0,0,0.010850694444444444,0,0)" xlink:href="#U"/><use transform="matrix(0.010850694444444444,0,0,0.010850694444444444,19.401041666666664,0)" xlink:href="#V"/><use transform="matrix(0.010850694444444444,0,0,0.010850694444444444,32.07465277777777,0)" xlink:href="#W"/><use transform="matrix(0.010850694444444444,0,0,0.010850694444444444,44.33593749999999,0)" xlink:href="#X"/><use transform="matrix(0.010850694444444444,0,0,0.010850694444444444,49.72873263888888,0)" xlink:href="#Y"/><use transform="matrix(0.010850694444444444,0,0,0.010850694444444444,56.77083333333333,0)" xlink:href="#V"/><use transform="matrix(0.010850694444444444,0,0,0.010850694444444444,69.44444444444444,0)" xlink:href="#Z"/><use transform="matrix(0.010850694444444444,0,0,0.010850694444444444,76.96397569444444,0)" xlink:href="#X"/><use transform="matrix(0.010850694444444444,0,0,0.010850694444444444,82.35677083333333,0)" xlink:href="#W"/><use transform="matrix(0.010850694444444444,0,0,0.010850694444444444,94.61805555555556,0)" xlink:href="#aa"/></g><path fill="#333" d="M399-777c-11 316 60 556 342 556 113 0 193-24 241-72v-251H709v-221h573v581C1177-55 960 24 725 20 280 12 81-292 94-770c11-421 200-700 610-706 347-5 543 171 578 483H990c-25-157-105-241-277-241-102 0-180 38-233 115s-76 191-81 342" id="ab"/><path fill="#333" d="M552-1102c254-4 435 134 435 383v469c1 103 15 180 43 233V0H738c-13-26-23-58-29-97C639-19 548 20 436 20 238 20 64-113 68-304c5-258 212-357 496-357h133c11-137-29-227-160-227-90 0-156 45-156 131H92c15-231 213-342 460-345zM357-325c0 76 61 124 142 124 88 0 168-45 198-105v-186H589c-152 2-232 51-232 167" id="ac"/><path fill="#333" d="M457-330c2 83 25 111 111 112 32 0 60-2 85-7V-6c-57 17-115 26-175 26-203 0-310-102-310-307v-583H10v-212h158v-266h289v266h185v212H457v540" id="ad"/><path fill="#333" d="M1031-175C952-60 797 20 609 20 287 20 60-206 72-543c12-330 180-559 505-559 309 0 482 214 477 537v118H365c15 134 115 234 263 234 111 0 198-40 261-121zM770-644c5-139-62-226-194-224-130 1-191 97-208 224h402" id="ae"/><path fill="#333" d="M1052-393l142-689h279L1197 0H955L750-681 545 0H304L28-1082h279l141 688 198-688h209" id="af"/><path fill="#333" d="M515-409l200-673h310L590 168c-66 202-236 321-472 250V199c127 7 198-15 230-107l34-89L3-1082h311" id="ag"/><g id="d"><use transform="matrix(0.007595486111111109,0,0,0.007595486111111109,0,3.607855902777777)" xlink:href="#ab"/><use transform="matrix(0.007595486111111109,0,0,0.007595486111111109,10.595703124999998,3.607855902777777)" xlink:href="#ac"/><use transform="matrix(0.007595486111111109,0,0,0.007595486111111109,18.935546874999996,3.607855902777777)" xlink:href="#ad"/><use transform="matrix(0.007595486111111109,0,0,0.007595486111111109,24.191623263888886,3.607855902777777)" xlink:href="#ae"/><use transform="matrix(0.007595486111111109,0,0,0.007595486111111109,32.599826388888886,3.607855902777777)" xlink:href="#af"/><use transform="matrix(0.007595486111111109,0,0,0.007595486111111109,44.03103298611111,3.607855902777777)" xlink:href="#ac"/><use transform="matrix(0.007595486111111109,0,0,0.007595486111111109,52.25694444444444,3.607855902777777)" xlink:href="#ag"/></g><path d="M1188-184C1085-50 863 23 620 19 179 12 35-393 136-846c55-245 188-458 376-560 200-108 522-86 663 58 83 86 135 202 147 357l-282-1c-15-154-72-235-226-242-123-5-221 50-292 162S413-796 401-583c-12 207 57 355 243 361 99 3 184-21 254-71l49-251H681l39-221h556" id="ah"/><path d="M240-950c152-162 433-205 628-78 130 85 203 260 187 475-23 313-242 582-566 573C192 12 32-209 58-524c15-179 81-318 182-426zm97 529c2 118 55 206 166 209 87 3 153-39 204-120 85-136 131-534-99-537-84-1-152 37-202 119s-72 191-69 329" id="ai"/><path d="M940-1025c7-134-61-208-194-211-129-3-245 66-262 176-11 73 36 130 146 173 71 27 143 52 208 85 197 97 291 234 276 410-24 281-257 413-561 413S37-149 38-459l293 1c-9 158 68 238 233 241 133 2 240-63 258-172 14-79-23-145-117-182l-193-77c-224-100-333-238-319-413 22-280 269-415 570-415 270 0 476 177 469 451H940" id="aj"/><path d="M458-357l308-725h304L547 0H277L92-1082h286" id="ak"/><g id="e"><use transform="matrix(0.010959201388888885,0,0,0.010959201388888885,0,0)" xlink:href="#ah"/><use transform="matrix(0.010959201388888885,0,0,0.010959201388888885,14.93739149305555,0)" xlink:href="#T"/><use transform="matrix(0.010959201388888885,0,0,0.010959201388888885,26.8171657986111,0)" xlink:href="#ai"/><use transform="matrix(0.010959201388888885,0,0,0.010959201388888885,39.23394097222221,0)" xlink:href="#aj"/><use transform="matrix(0.010959201388888885,0,0,0.010959201388888885,52.72471788194442,0)" xlink:href="#T"/><use transform="matrix(0.010959201388888885,0,0,0.010959201388888885,64.60449218749999,0)" xlink:href="#N"/><use transform="matrix(0.010959201388888885,0,0,0.010959201388888885,72.85677083333331,0)" xlink:href="#ak"/><use transform="matrix(0.010959201388888885,0,0,0.010959201388888885,83.82693142361109,0)" xlink:href="#T"/><use transform="matrix(0.010959201388888885,0,0,0.010959201388888885,95.70670572916664,0)" xlink:href="#N"/></g><path fill="#333" d="M1006-631H430v390h676V0H130v-1456h974v243H430v347h576v235" id="al"/><path fill="#333" d="M516-353l201-729h302L654 0H378L13-1082h302" id="am"/><path fill="#333" d="M750-692c-1-124-48-174-173-175-81 0-142 35-183 104V0H105v-1082h272l9 125c77-97 181-145 311-145 244 0 342 151 342 403V0H750v-692" id="an"/><g id="f"><use transform="matrix(0.010850694444444444,0,0,0.010850694444444444,0,0)" xlink:href="#al"/><use transform="matrix(0.010850694444444444,0,0,0.010850694444444444,12.217881944444445,0)" xlink:href="#am"/><use transform="matrix(0.010850694444444444,0,0,0.010850694444444444,23.307291666666664,0)" xlink:href="#ae"/><use transform="matrix(0.010850694444444444,0,0,0.010850694444444444,35.319010416666664,0)" xlink:href="#an"/><use transform="matrix(0.010850694444444444,0,0,0.010850694444444444,47.76475694444444,0)" xlink:href="#ad"/></g><path fill="#333" d="M1212-428C1211-131 1004 0 696 0H130v-1456h510c318-1 539 108 539 399 0 155-89 264-208 308 141 33 242 151 241 321zM687-241c132 2 225-65 225-190 0-133-69-203-207-203H430v393h257zm192-786c0-145-86-186-239-186H430v367h222c151-3 227-63 227-181" id="ao"/><path fill="#333" d="M463 20c-241-1-359-147-359-393v-709h289v699c0 113 51 169 154 169 98 0 165-34 202-102v-766h290V0H767l-8-110C688-23 589 20 463 20" id="ap"/><path fill="#333" d="M529-185c94 0 168-33 168-114 0-35-18-63-53-83s-91-39-168-55C219-491 90-600 90-765c0-208 203-337 432-337 246 0 451 124 453 349H686c-2-91-62-143-165-143-86 0-151 41-153 117 0 32 16 57 46 77 63 43 257 69 335 100 151 60 229 153 229 291C978-13 554 93 282-28 162-81 60-190 56-344h274c5 106 86 159 199 159" id="aq"/><g id="g"><use transform="matrix(0.010850694444444444,0,0,0.010850694444444444,0,0)" xlink:href="#ao"/><use transform="matrix(0.010850694444444444,0,0,0.010850694444444444,14.181857638888888,0)" xlink:href="#ap"/><use transform="matrix(0.010850694444444444,0,0,0.010850694444444444,26.61675347222222,0)" xlink:href="#aq"/></g><path d="M976-595H418L314 0H21l253-1456h922l-43 243H525l-66 376h560" id="ar"/><g id="h"><use transform="matrix(0.010959201388888885,0,0,0.010959201388888885,0,0)" xlink:href="#ar"/><use transform="matrix(0.010959201388888885,0,0,0.010959201388888885,11.748263888888884,0)" xlink:href="#N"/><use transform="matrix(0.010959201388888885,0,0,0.010959201388888885,19.408745659722214,0)" xlink:href="#ai"/><use transform="matrix(0.010959201388888885,0,0,0.010959201388888885,31.82552083333332,0)" xlink:href="#L"/><use transform="matrix(0.010959201388888885,0,0,0.010959201388888885,44.13270399305554,0)" xlink:href="#Q"/></g><path d="M301 0H17l188-1082h284zm-13-1249c-60-51-66-163-6-219 59-55 161-58 222-5 60 52 65 154 8 214-54 56-161 63-224 10" id="as"/><g id="i"><use transform="matrix(0.010959201388888885,0,0,0.010959201388888885,0,0)" xlink:href="#P"/><use transform="matrix(0.010959201388888885,0,0,0.010959201388888885,11.29893663194444,0)" xlink:href="#T"/><use transform="matrix(0.010959201388888885,0,0,0.010959201388888885,23.17871093749999,0)" xlink:href="#N"/><use transform="matrix(0.010959201388888885,0,0,0.010959201388888885,31.43098958333332,0)" xlink:href="#ak"/><use transform="matrix(0.010959201388888885,0,0,0.010959201388888885,42.54361979166665,0)" xlink:href="#as"/><use transform="matrix(0.010959201388888885,0,0,0.010959201388888885,48.42871093749998,0)" xlink:href="#S"/><use transform="matrix(0.010959201388888885,0,0,0.010959201388888885,59.89203559027776,0)" xlink:href="#T"/><use transform="matrix(0.010959201388888885,0,0,0.010959201388888885,71.7718098958333,0)" xlink:href="#P"/></g><path d="M1264-420l196-1036h299L1436 0h-302L897-974 660 0H358L35-1456h299L531-422l240-1034h254" id="at"/><path d="M1006-595H430V0H130v-1456h948v243H430v376h576v242" id="au"/><path d="M658-217c127 0 227-49 227-165 0-57-21-98-60-130-79-64-370-142-463-196-162-95-248-210-248-361 0-280 246-403 537-407 213-3 383 84 467 216 45 69 68 147 68 234H886c0-139-96-211-240-211-129 0-232 55-232 169 0 47 24 87 72 119s117 62 210 90c171 51 295 115 373 191s117 171 117 284c-2 272-237 411-528 404C331 13 78-135 69-458h301c0 161 96 241 288 241" id="av"/><g id="j"><use transform="matrix(0.0087890625,0,0,0.0087890625,0,0)" xlink:href="#at"/><use transform="matrix(0.0087890625,0,0,0.0087890625,15.7412109375,0)" xlink:href="#au"/><use transform="matrix(0.0087890625,0,0,0.0087890625,25.6025390625,0)" xlink:href="#av"/></g><path d="M552-1471H410V116h142v223H120v-2033h432v223" id="aw"/><path d="M586-1476c342 0 491 246 493 606v268c2 370-143 622-491 622C246 20 97-227 95-587v-268c-2-372 145-621 491-621zm204 926c0-199 18-488-50-610-58-105-243-107-304-4-71 121-52 402-52 600 0 119 19 205 48 264 54 112 254 115 309 4 28-57 49-140 49-254" id="ax"/><path d="M289 11c-91 0-163-63-163-153 0-91 73-155 163-155 91 0 164 64 164 155S381 11 289 11" id="ay"/><path d="M1314 0h-300L430-958V0H130v-1456h300l585 960v-960h299V0" id="az"/><path d="M13-1694h432V339H13V116h143v-1587H13v-223" id="aA"/><g id="k"><use transform="matrix(0.0087890625,0,0,0.0087890625,0,0)" xlink:href="#aw"/><use transform="matrix(0.0087890625,0,0,0.0087890625,5.0009765625,0)" xlink:href="#ax"/><use transform="matrix(0.0087890625,0,0,0.0087890625,15.328125,0)" xlink:href="#ay"/><use transform="matrix(0.0087890625,0,0,0.0087890625,20.5576171875,0)" xlink:href="#ay"/><use transform="matrix(0.0087890625,0,0,0.0087890625,25.787109375,0)" xlink:href="#az"/><use transform="matrix(0.0087890625,0,0,0.0087890625,38.49609375,0)" xlink:href="#aA"/></g><path d="M522-1456L896-400l372-1056h394V0h-301c-7-379 15-728 30-1085L998 0H792L400-1084c15 357 37 705 30 1084H130v-1456h392" id="aB"/><g id="l"><use transform="matrix(0.0087890625,0,0,0.0087890625,0,0)" xlink:href="#at"/><use transform="matrix(0.0087890625,0,0,0.0087890625,15.7412109375,0)" xlink:href="#aB"/><use transform="matrix(0.0087890625,0,0,0.0087890625,31.5087890625,0)" xlink:href="#av"/></g><path d="M687-225c189-1 272-84 286-260h300c-19 311-251 505-586 505C296 20 86-277 86-686c0-466 174-782 605-790 340-6 557 198 584 514H975c-15-183-92-268-284-268-100 0-173 38-225 108-63 84-76 264-76 443 0 157 24 272 72 345s122 109 225 109" id="aC"/><g id="m"><use transform="matrix(0.0087890625,0,0,0.0087890625,0,0)" xlink:href="#at"/><use transform="matrix(0.0087890625,0,0,0.0087890625,15.7412109375,0)" xlink:href="#aC"/><use transform="matrix(0.0087890625,0,0,0.0087890625,27.5185546875,0)" xlink:href="#av"/></g><path d="M1245-974c0 302-233 466-552 461H430V0H130v-1456h568c323 5 547 167 547 482zm-303 2c1-143-93-241-237-241H430v457h268c151 1 244-71 244-216" id="aD"/><g id="n"><use transform="matrix(0.0087890625,0,0,0.0087890625,0,0)" xlink:href="#at"/><use transform="matrix(0.0087890625,0,0,0.0087890625,15.7412109375,0)" xlink:href="#aD"/><use transform="matrix(0.0087890625,0,0,0.0087890625,27.3515625,0)" xlink:href="#av"/></g><path d="M1031-175C952-60 797 20 609 20 287 20 60-206 72-543c12-330 180-559 505-559 309 0 482 214 477 537v118H365c15 134 115 234 263 234 111 0 198-40 261-121zM770-644c5-139-62-226-194-224-130 1-191 97-208 224h402" id="aE"/><path d="M663-1102c295 0 423 246 423 571 0 313-131 551-421 551-117 0-211-45-281-135L371 0H111v-1536h289v551c67-78 154-117 263-117zm-71 889c164 0 209-139 205-339-3-189-44-315-207-315-92 0-155 38-190 113v427c35 76 99 114 192 114" id="aF"/><g id="o"><use transform="matrix(0.0087890625,0,0,0.0087890625,0,0)" xlink:href="#at"/><use transform="matrix(0.0087890625,0,0,0.0087890625,15.46875,0)" xlink:href="#aE"/><use transform="matrix(0.0087890625,0,0,0.0087890625,25.1982421875,0)" xlink:href="#aF"/></g><path d="M416-495c-3 181 88 274 258 274 169 0 257-89 257-266v-969h301v959c3 324-227 517-558 517-328 0-557-188-558-506v-970h300v961" id="aG"/><path d="M449 0H149v-1456h300V0" id="aH"/><g id="p"><use transform="matrix(0.0087890625,0,0,0.0087890625,0,0)" xlink:href="#aG"/><use transform="matrix(0.0087890625,0,0,0.0087890625,11.84765625,0)" xlink:href="#aH"/></g><g id="q"><use transform="matrix(0.0087890625,0,0,0.0087890625,0,0)" xlink:href="#aw"/><use transform="matrix(0.0087890625,0,0,0.0087890625,5.0009765625,0)" xlink:href="#ax"/><use transform="matrix(0.0087890625,0,0,0.0087890625,15.328125,0)" xlink:href="#ay"/><use transform="matrix(0.0087890625,0,0,0.0087890625,20.5576171875,0)" xlink:href="#ay"/><use transform="matrix(0.0087890625,0,0,0.0087890625,25.787109375,0)" xlink:href="#az"/><use transform="matrix(0.0087890625,0,0,0.0087890625,38.49609375,0)" xlink:href="#aA"/></g><path d="M1209-1016c0 219-100 334-260 407l315 595V0H942L669-533H430V0H130v-1456h541c318-3 538 141 538 440zm-300 24c-1-144-85-221-238-221H430v437h242c144 2 238-77 237-216" id="aI"/><path d="M1006-631H430v390h676V0H130v-1456h974v243H430v347h576v235" id="aJ"/><path d="M1226-1213H780V0H480v-1213H40v-243h1186v243" id="aK"/><g id="r"><use transform="matrix(0.0087890625,0,0,0.0087890625,0,0)" xlink:href="#aI"/><use transform="matrix(0.0087890625,0,0,0.0087890625,11.4873046875,0)" xlink:href="#aJ"/><use transform="matrix(0.0087890625,0,0,0.0087890625,21.6123046875,0)" xlink:href="#av"/><use transform="matrix(0.0087890625,0,0,0.0087890625,32.677734375,0)" xlink:href="#aK"/></g><path d="M399-777c-11 316 60 556 342 556 113 0 193-24 241-72v-251H709v-221h573v581C1177-55 960 24 725 20 280 12 81-292 94-770c11-421 200-700 610-706 347-5 543 171 578 483H990c-25-157-105-241-277-241-102 0-180 38-233 115s-76 191-81 342" id="aL"/><g id="s"><use transform="matrix(0.0087890625,0,0,0.0087890625,0,0)" xlink:href="#aL"/><use transform="matrix(0.0087890625,0,0,0.0087890625,12.2607421875,0)" xlink:href="#at"/><use transform="matrix(0.0087890625,0,0,0.0087890625,28.001953125,0)" xlink:href="#aC"/></g><path fill="#333" d="M362-157h690V0H169v-1456h193v1299" id="aM"/><g id="t"><use transform="matrix(0.008680555555555554,0,0,0.008680555555555554,0,0)" xlink:href="#aM"/><use transform="matrix(0.008680555555555554,0,0,0.008680555555555554,9.565972222222221,0)" xlink:href="#V"/><use transform="matrix(0.008680555555555554,0,0,0.008680555555555554,19.704861111111107,0)" xlink:href="#aa"/><use transform="matrix(0.008680555555555554,0,0,0.008680555555555554,29.67881944444444,0)" xlink:href="#aa"/><use transform="matrix(0.008680555555555554,0,0,0.008680555555555554,39.65277777777777,0)" xlink:href="#X"/><use transform="matrix(0.008680555555555554,0,0,0.008680555555555554,43.96701388888888,0)" xlink:href="#W"/><use transform="matrix(0.008680555555555554,0,0,0.008680555555555554,53.776041666666664,0)" xlink:href="#aa"/></g><path fill="#333" d="M1175-1298H707V0H516v-1298H49v-158h1126v158" id="aN"/><path fill="#333" d="M561-1102c238-4 403 126 403 351v498c0 99 13 178 38 237V0H808c-11-21-19-59-26-114C696-25 593 20 474 20c-199 0-368-130-365-320 4-251 214-359 490-356h180v-85c-1-135-86-212-229-212-115 0-232 67-233 171H131c20-205 206-316 430-320zM294-326c0 117 90 185 207 185 122 0 239-75 278-162v-222H634c-227 0-340 66-340 199" id="aO"/><path fill="#333" d="M277-555c0 244 77 420 297 424 127 2 249-93 255-210h175C980-127 805 20 574 20 258 20 81-222 92-562c11-319 164-533 481-540 237-5 426 165 431 392H829c-7-133-115-242-256-240-209 4-296 166-296 395" id="aP"/><g id="u"><use transform="matrix(0.008680555555555554,0,0,0.008680555555555554,0,0)" xlink:href="#aN"/><use transform="matrix(0.008680555555555554,0,0,0.008680555555555554,9.956597222222221,0)" xlink:href="#Z"/><use transform="matrix(0.008680555555555554,0,0,0.008680555555555554,15.625,0)" xlink:href="#aO"/><use transform="matrix(0.008680555555555554,0,0,0.008680555555555554,25.295138888888886,0)" xlink:href="#aP"/><use transform="matrix(0.008680555555555554,0,0,0.008680555555555554,34.60069444444444,0)" xlink:href="#X"/><use transform="matrix(0.008680555555555554,0,0,0.008680555555555554,38.91493055555556,0)" xlink:href="#W"/><use transform="matrix(0.008680555555555554,0,0,0.008680555555555554,48.723958333333336,0)" xlink:href="#aa"/></g><path d="M130 0v-1456h448c435 14 673 299 665 762-5 285-130 500-319 606C822-31 708 0 581 0H130zm809-685c9-311-79-526-361-528H430v972h145c252-2 356-181 364-444" id="aQ"/><path d="M416 0H126v-1082h290V0zM271-1212c-92 0-162-61-162-150s68-149 162-149c93 0 162 60 162 149s-70 150-162 150" id="aR"/><path d="M529-185c94 0 168-33 168-114 0-35-18-63-53-83s-91-39-168-55C219-491 90-600 90-765c0-208 203-337 432-337 246 0 451 124 453 349H686c-2-91-62-143-165-143-86 0-151 41-153 117 0 32 16 57 46 77 63 43 257 69 335 100 151 60 229 153 229 291C978-13 554 93 282-28 162-81 60-190 56-344h274c5 106 86 159 199 159" id="aS"/><path d="M355-556c-2 203 30 338 206 343 102 3 181-63 182-161h271C1001-128 821 17 566 20 242 24 66-212 66-554c0-320 184-548 498-548 262 0 451 167 450 423H743c-1-108-75-193-184-189-162 6-202 123-204 312" id="aT"/><path d="M579 20C257 20 58-214 66-551c8-331 182-551 511-551 324 0 514 231 514 572 0 319-198 550-512 550zm-2-888c-169 0-222 141-222 338 0 181 61 317 224 317 170 0 223-137 223-338 0-178-64-317-225-317" id="aU"/><path d="M516-353l201-729h302L654 0H378L13-1082h302" id="aV"/><path d="M719-811c-143-24-279 1-319 103V0H111v-1082h273l8 129c74-124 180-175 331-136" id="aW"/><path d="M515-409l200-673h310L590 168c-66 202-236 321-472 250V199c127 7 198-15 230-107l34-89L3-1082h311" id="aX"/><g id="v"><use transform="matrix(0.0087890625,0,0,0.0087890625,0,0)" xlink:href="#aQ"/><use transform="matrix(0.0087890625,0,0,0.0087890625,11.6982421875,0)" xlink:href="#aR"/><use transform="matrix(0.0087890625,0,0,0.0087890625,16.470703125,0)" xlink:href="#aS"/><use transform="matrix(0.0087890625,0,0,0.0087890625,25.7255859375,0)" xlink:href="#aT"/><use transform="matrix(0.0087890625,0,0,0.0087890625,35.1123046875,0)" xlink:href="#aU"/><use transform="matrix(0.0087890625,0,0,0.0087890625,45.158203125,0)" xlink:href="#aV"/><use transform="matrix(0.0087890625,0,0,0.0087890625,54.140625,0)" xlink:href="#aE"/><use transform="matrix(0.0087890625,0,0,0.0087890625,63.8701171875,0)" xlink:href="#aW"/><use transform="matrix(0.0087890625,0,0,0.0087890625,70.59375,0)" xlink:href="#aX"/></g><path d="M750-692c-1-124-48-174-173-175-81 0-142 35-183 104V0H105v-1082h272l9 125c77-97 181-145 311-145 244 0 342 151 342 403V0H750v-692" id="aY"/><path d="M190-1174c-11-296 244-440 544-363l-3 224c-24-6-53-9-88-9-109 0-163 51-163 153v87h215v212H480V0H190v-870H29v-212h161v-92" id="aZ"/><path d="M505 20C221 18 69-239 69-549c0-302 153-553 438-553 119 0 211 41 277 122l12-102h262V-36c-8 305-208 458-520 462-160 1-335-76-403-170L263 80c72 81 159 121 262 121 172 1 260-107 243-294C701-18 614 20 505 20zm76-887c-165 0-223 147-223 339 0 172 66 314 221 314 88 0 151-33 189-99v-455c-39-66-101-99-187-99" id="ba"/><g id="w"><use transform="matrix(0.0087890625,0,0,0.0087890625,0,0)" xlink:href="#aC"/><use transform="matrix(0.0087890625,0,0,0.0087890625,11.77734375,0)" xlink:href="#aU"/><use transform="matrix(0.0087890625,0,0,0.0087890625,21.955078125,0)" xlink:href="#aY"/><use transform="matrix(0.0087890625,0,0,0.0087890625,32.0361328125,0)" xlink:href="#aZ"/><use transform="matrix(0.0087890625,0,0,0.0087890625,38.4873046875,0)" xlink:href="#aR"/><use transform="matrix(0.0087890625,0,0,0.0087890625,43.259765625,0)" xlink:href="#ba"/></g><path fill="#333" d="M688-137c238 0 323-102 359-325h193c-32 297-228 482-552 482-361 0-569-299-569-680 0-197 8-360 73-497 88-186 257-317 513-319 316-2 509 195 535 488h-193c-31-212-118-330-342-330-272 0-397 224-393 523v141c-3 282 115 517 376 517" id="bb"/><path fill="#333" d="M589-945c-131 0-219 81-264 174V0H140v-1536h185v585c82-101 189-151 320-151 229 0 346 129 346 387V0H806v-716c-2-153-65-229-217-229" id="bc"/><path fill="#333" d="M599-131c141 0 220-65 285-146l113 88C906-50 770 20 589 20 281 21 93-214 93-545c0-223 93-397 233-485 74-48 154-72 240-72 300 2 449 218 445 537v77H278c0 197 129 357 321 357zm227-509c-3-180-88-310-260-310-170 0-264 140-282 310h542" id="bd"/><g id="x"><use transform="matrix(0.008680555555555552,0,0,0.008680555555555552,0,0)" xlink:href="#bb"/><use transform="matrix(0.008680555555555552,0,0,0.008680555555555552,11.571180555555552,0)" xlink:href="#aO"/><use transform="matrix(0.008680555555555552,0,0,0.008680555555555552,21.241319444444436,0)" xlink:href="#aP"/><use transform="matrix(0.008680555555555552,0,0,0.008680555555555552,30.546874999999986,0)" xlink:href="#bc"/><use transform="matrix(0.008680555555555552,0,0,0.008680555555555552,40.33854166666665,0)" xlink:href="#bd"/></g><path d="M552-1102c254-4 435 134 435 383v469c1 103 15 180 43 233V0H738c-13-26-23-58-29-97C639-19 548 20 436 20 238 20 64-113 68-304c5-258 212-357 496-357h133c11-137-29-227-160-227-90 0-156 45-156 131H92c15-231 213-342 460-345zM357-325c0 76 61 124 142 124 88 0 168-45 198-105v-186H589c-152 2-232 51-232 167" id="be"/><path d="M457-330c2 83 25 111 111 112 32 0 60-2 85-7V-6c-57 17-115 26-175 26-203 0-310-102-310-307v-583H10v-212h158v-266h289v266h185v212H457v540" id="bf"/><path d="M416 0H126v-1536h290V0" id="bg"/><path d="M202 125H-13l536-1581h215" id="bh"/><g id="z"><use transform="matrix(0.010959201388888886,0,0,0.010959201388888886,0,0)" xlink:href="#aC"/><use transform="matrix(0.010959201388888886,0,0,0.010959201388888886,14.685329861111107,0)" xlink:href="#be"/><use transform="matrix(0.010959201388888886,0,0,0.010959201388888886,26.718532986111104,0)" xlink:href="#bf"/><use transform="matrix(0.010959201388888886,0,0,0.010959201388888886,34.302300347222214,0)" xlink:href="#be"/><use transform="matrix(0.010959201388888886,0,0,0.010959201388888886,46.335503472222214,0)" xlink:href="#bg"/><use transform="matrix(0.010959201388888886,0,0,0.010959201388888886,52.28634982638888,0)" xlink:href="#aU"/><use transform="matrix(0.010959201388888886,0,0,0.010959201388888886,64.97710503472221,0)" xlink:href="#ba"/><use transform="matrix(0.010959201388888886,0,0,0.010959201388888886,77.78841145833333,0)" xlink:href="#bh"/><use transform="matrix(0.010959201388888886,0,0,0.010959201388888886,86.17220052083333,0)" xlink:href="#aC"/><use transform="matrix(0.010959201388888886,0,0,0.010959201388888886,100.85753038194441,0)" xlink:href="#aU"/><use transform="matrix(0.010959201388888886,0,0,0.010959201388888886,113.54828559027776,0)" xlink:href="#aY"/><use transform="matrix(0.010959201388888886,0,0,0.010959201388888886,126.1184895833333,0)" xlink:href="#aZ"/><use transform="matrix(0.010959201388888886,0,0,0.010959201388888886,134.16254340277777,0)" xlink:href="#aR"/><use transform="matrix(0.010959201388888886,0,0,0.010959201388888886,140.11338975694443,0)" xlink:href="#ba"/></g><path d="M504-434L400-330V0H111v-1536h289v851c106-137 222-264 333-397h347L689-631 1114 0H782" id="bi"/><path d="M673-507H110v-233h563v233" id="bj"/><path d="M488 20C204 20 66-234 66-549c0-305 140-551 424-553 105 0 192 39 261 118v-552h290V0H780l-14-115C694-25 601 20 488 20zM355-528c0 176 51 314 207 314 89 0 152-38 189-113v-427c-36-75-98-113-187-113-139 0-209 113-209 339" id="bk"/><g id="A"><use transform="matrix(0.010959201388888886,0,0,0.010959201388888886,0,0)" xlink:href="#aF"/><use transform="matrix(0.010959201388888886,0,0,0.010959201388888886,12.635959201388886,0)" xlink:href="#be"/><use transform="matrix(0.010959201388888886,0,0,0.010959201388888886,24.669162326388882,0)" xlink:href="#aT"/><use transform="matrix(0.010959201388888886,0,0,0.010959201388888886,36.373589409722214,0)" xlink:href="#bi"/><use transform="matrix(0.010959201388888886,0,0,0.010959201388888886,48.36295572916666,0)" xlink:href="#bj"/><use transform="matrix(0.010959201388888886,0,0,0.010959201388888886,57.06456163194443,0)" xlink:href="#aE"/><use transform="matrix(0.010959201388888886,0,0,0.010959201388888886,69.19639756944443,0)" xlink:href="#aY"/><use transform="matrix(0.010959201388888886,0,0,0.010959201388888886,81.76660156249999,0)" xlink:href="#bk"/></g><filter id="y" filterUnits="objectBoundingBox" x="0" y="-.01" width="1.01" height="1.05"><feOffset result="offOut" in="SourceAlpha" dy="1"/><feGaussianBlur result="blurOut" in="offOut" stdDeviation=".75"/><feColorMatrix result="colorOut" in="blurOut" values="0 0 0 0 0 0 0 0 0 0 0 0 0 0 0 0 0 0 0.4 0"/><feBlend in="SourceGraphic" in2="colorOut"/></filter><path d="M523-759l182-323h309L706-552 1027 0H717L524-340 332 0H21l321-552-307-530h310" id="bl"/><g id="B"><use transform="matrix(0.010959201388888886,0,0,0.010959201388888886,0,0)" xlink:href="#aJ"/><use transform="matrix(0.010959201388888886,0,0,0.010959201388888886,12.624999999999996,0)" xlink:href="#bl"/><use transform="matrix(0.010959201388888886,0,0,0.010959201388888886,24.044487847222218,0)" xlink:href="#bf"/><use transform="matrix(0.010959201388888886,0,0,0.010959201388888886,31.62825520833332,0)" xlink:href="#aE"/><use transform="matrix(0.010959201388888886,0,0,0.010959201388888886,43.760091145833314,0)" xlink:href="#aW"/><use transform="matrix(0.010959201388888886,0,0,0.010959201388888886,51.946614583333314,0)" xlink:href="#aY"/><use transform="matrix(0.010959201388888886,0,0,0.010959201388888886,64.51681857638887,0)" xlink:href="#be"/><use transform="matrix(0.010959201388888886,0,0,0.010959201388888886,76.55002170138887,0)" xlink:href="#bg"/></g><g id="C"><use transform="matrix(0.010959201388888886,0,0,0.010959201388888886,0,0)" xlink:href="#aQ"/><use transform="matrix(0.010959201388888886,0,0,0.010959201388888886,14.586697048611107,0)" xlink:href="#be"/><use transform="matrix(0.010959201388888886,0,0,0.010959201388888886,26.619900173611104,0)" xlink:href="#bf"/><use transform="matrix(0.010959201388888886,0,0,0.010959201388888886,34.203667534722214,0)" xlink:href="#be"/></g><path d="M463 20c-241-1-359-147-359-393v-709h289v699c0 113 51 169 154 169 98 0 165-34 202-102v-766h290V0H767l-8-110C688-23 589 20 463 20" id="bm"/><g id="D"><use transform="matrix(0.010959201388888886,0,0,0.010959201388888886,0,0)" xlink:href="#av"/><use transform="matrix(0.010959201388888886,0,0,0.010959201388888886,13.797634548611107,0)" xlink:href="#aU"/><use transform="matrix(0.010959201388888886,0,0,0.010959201388888886,26.488389756944432,0)" xlink:href="#bm"/><use transform="matrix(0.010959201388888886,0,0,0.010959201388888886,39.0476345486111,0)" xlink:href="#aW"/><use transform="matrix(0.010959201388888886,0,0,0.010959201388888886,47.025933159722214,0)" xlink:href="#aT"/><use transform="matrix(0.010959201388888886,0,0,0.010959201388888886,58.73036024305554,0)" xlink:href="#aE"/><use transform="matrix(0.010959201388888886,0,0,0.010959201388888886,70.86219618055554,0)" xlink:href="#aS"/></g><g id="F"><use transform="matrix(0.010959201388888886,0,0,0.010959201388888886,0,0)" xlink:href="#aS"/><use transform="matrix(0.010959201388888886,0,0,0.010959201388888886,11.540039062499998,0)" xlink:href="#bf"/><use transform="matrix(0.010959201388888886,0,0,0.010959201388888886,18.795030381944443,0)" xlink:href="#aU"/><use transform="matrix(0.010959201388888886,0,0,0.010959201388888886,31.48578559027777,0)" xlink:href="#aW"/><use transform="matrix(0.010959201388888886,0,0,0.010959201388888886,39.3435329861111,0)" xlink:href="#be"/><use transform="matrix(0.010959201388888886,0,0,0.010959201388888886,51.3767361111111,0)" xlink:href="#ba"/><use transform="matrix(0.010959201388888886,0,0,0.010959201388888886,64.18804253472221,0)" xlink:href="#aE"/></g><filter id="E" filterUnits="objectBoundingBox" x="0" y="-.01" width="1.01" height="1.05"><feOffset result="offOut" in="SourceAlpha" dy="1"/><feGaussianBlur result="blurOut" in="offOut" stdDeviation=".75"/><feColorMatrix result="colorOut" in="blurOut" values="0 0 0 0 0 0 0 0 0 0 0 0 0 0 0 0 0 0 0.4 0"/><feBlend in="SourceGraphic" in2="colorOut"/></filter><path d="M663-1102c295 0 422 250 422 571 0 300-141 549-420 551-109 0-198-38-265-114v510H111v-1498h268l10 106c70-84 161-126 274-126zm133 550c0-175-53-315-209-315-91 0-153 35-187 104v443c35 71 98 107 189 107 138 0 207-113 207-339" id="bn"/><g id="H"><use transform="matrix(0.010959201388888886,0,0,0.010959201388888886,0,0)" xlink:href="#aL"/><use transform="matrix(0.010959201388888886,0,0,0.010959201388888886,15.288085937499996,0)" xlink:href="#aE"/><use transform="matrix(0.010959201388888886,0,0,0.010959201388888886,27.419921874999993,0)" xlink:href="#aU"/><use transform="matrix(0.010959201388888886,0,0,0.010959201388888886,40.11067708333332,0)" xlink:href="#aS"/><use transform="matrix(0.010959201388888886,0,0,0.010959201388888886,51.65071614583332,0)" xlink:href="#bn"/><use transform="matrix(0.010959201388888886,0,0,0.010959201388888886,64.2866753472222,0)" xlink:href="#be"/><use transform="matrix(0.010959201388888886,0,0,0.010959201388888886,76.3198784722222,0)" xlink:href="#bf"/><use transform="matrix(0.010959201388888886,0,0,0.010959201388888886,83.90364583333331,0)" xlink:href="#aR"/><use transform="matrix(0.010959201388888886,0,0,0.010959201388888886,89.85449218749999,0)" xlink:href="#be"/><use transform="matrix(0.010959201388888886,0,0,0.010959201388888886,101.88769531249997,0)" xlink:href="#bg"/></g><g id="I"><use transform="matrix(0.010959201388888886,0,0,0.010959201388888886,0,0)" xlink:href="#bk"/><use transform="matrix(0.010959201388888886,0,0,0.010959201388888886,12.646918402777775,0)" xlink:href="#be"/><use transform="matrix(0.010959201388888886,0,0,0.010959201388888886,24.68012152777777,0)" xlink:href="#bf"/><use transform="matrix(0.010959201388888886,0,0,0.010959201388888886,32.26388888888888,0)" xlink:href="#be"/></g><g id="J"><use transform="matrix(0.010959201388888886,0,0,0.010959201388888886,0,0)" xlink:href="#aS"/><use transform="matrix(0.010959201388888886,0,0,0.010959201388888886,11.540039062499998,0)" xlink:href="#aU"/><use transform="matrix(0.010959201388888886,0,0,0.010959201388888886,24.23079427083333,0)" xlink:href="#bm"/><use transform="matrix(0.010959201388888886,0,0,0.010959201388888886,36.79003906249999,0)" xlink:href="#aW"/><use transform="matrix(0.010959201388888886,0,0,0.010959201388888886,44.76833767361111,0)" xlink:href="#aT"/><use transform="matrix(0.010959201388888886,0,0,0.010959201388888886,56.47276475694443,0)" xlink:href="#aE"/><use transform="matrix(0.010959201388888886,0,0,0.010959201388888886,68.60460069444443,0)" xlink:href="#aS"/></g><filter id="G" filterUnits="objectBoundingBox" x="0" y="-.01" width="1.01" height="1.05"><feOffset result="offOut" in="SourceAlpha" dy="1"/><feGaussianBlur result="blurOut" in="offOut" stdDeviation=".75"/><feColorMatrix result="colorOut" in="blurOut" values="0 0 0 0 0 0 0 0 0 0 0 0 0 0 0 0 0 0 0.4 0"/><feBlend in="SourceGraphic" in2="colorOut"/></filter></defs></g></svg>